<?xml version="1.0" encoding="utf-8"?>
<!-- Generator: Adobe Illustrator 25.3.1, SVG Export Plug-In . SVG Version: 6.00 Build 0)  -->
<svg version="1.1" id="Layer_1" xmlns="http://www.w3.org/2000/svg" xmlns:xlink="http://www.w3.org/1999/xlink" x="0px" y="0px"
	 viewBox="0 0 841.9 1190.6" style="enable-background:new 0 0 841.9 1190.6;" xml:space="preserve">
<style type="text/css">
	.st0{fill:#2590CF;}
	.st1{fill:#D9281E;}
	.st2{fill:#E5791B;}
</style>
<g>
	<path class="st0" d="M308.1,668.7c-5.3,2.5-9.8,5.9-13,11.4c-1.3-3.4,0.5-6.3-0.3-9.4c-0.5-0.2-1-0.4-1.8-0.6
		c-0.1-0.6-0.2-1.2-0.2-1.8c0-11.7,0-23.3,0-35c0-0.5,0.2-1.1,0.2-1.6c0-1.3,0-2.6-0.1-3.9l0,0c0.1-1,0.1-1.9,0.2-2.9
		c0.1-15.1,0.2-30.2,0.3-45.3c0-9.5,0-19,0-28.5c0-0.7-0.1-1.4-0.2-2.3c-2.6-0.4-5-0.8-7.4-1.1c-5.5-0.6-10.9-1.2-16.4-1.6
		c-5.4-0.4-10.8-0.5-16.3-0.7c-0.4,0-0.8,0-1.4-0.1c0,67.8,0,135.5,0,203.2c-2.1-0.3-20.8-9.5-33.7-16.5c0-0.9,0-2,0-3.1
		c0-16.4,0-32.8,0-49.2c-0.1-21.4-0.3-42.8-0.3-64.3c-0.1-20.5-0.1-40.9-0.1-61.4c0-2.4-0.5-4.8-0.7-7.2c-2.7-0.3-5.3,0.2-8,0.8
		c-0.4,0.2-0.9,0.4-1,0.7c-0.2,0.7-0.1,1.4-0.1,2.1c0,25,0,50.1,0,75.1c0,0.9,0,1.9,0,3.1c-4.9,0.2-9.6,0.4-14.4,0.6
		c-1.2,2.5-2.3,5-3.4,7.5c-3.3-2.1-6.3-4.4-9.7-6c-3.4-1.6-7.2-2.5-11.1-3.7c0-0.5,0-1.2,0-1.9c0-15,0-30.1-0.1-45.1
		c0-7.9-0.2-15.8-0.4-23.7c0-0.3-0.1-0.6-0.1-1.2c-2.2,0.6-4.3,1-6.4,1.6c-18.2,5.1-35.8,11.8-52.6,20.5
		c-12.1,6.3-23.6,13.5-34.1,22.1c-5.1,4.2-10.1,8.6-14.7,13.3c-9.8,10-18.1,21.3-23.9,34.2c-4.2,9.2-6.8,18.9-7.8,29
		c-1.5,15.5,1.4,30.2,7.3,44.5c3.6,8.7,8.2,17,14,24.5c6.3,8.2,13.9,14.9,22.3,20.9c3.3,2.4,6.7,4.7,10.1,6.9c1.9,1.2,3.2,2.5,2.7,5
		c-0.4,2.1-0.3,4.4-0.5,6.7c-0.5-0.1-0.7-0.1-0.9-0.2c-10.5-7.1-20.1-15.2-28.5-24.8c-7.6-8.6-13.9-18.1-18.8-28.5
		c-4.2-8.9-7-18.3-8.6-28c-1.3-7.7-1.7-15.4-1.2-23.1c0.8-12.7,3.7-25,8.7-36.8c5.8-13.7,13.8-25.9,23.7-36.9
		c8.1-9,17.2-16.9,27.1-23.9c7.7-5.5,15.8-10.2,24.3-14.4c14.4-7.1,29.5-12.6,45.1-16.7c3.8-1,7.6-1.9,11.4-2.8
		c1.2-0.3,2-0.7,1.4-2.4c-1.7,0.2-3.5,0.3-5.3,0.6c-7.6,1.2-15.1,2.6-22.5,4.6c-10.5,2.7-20.8,6.2-30.8,10.5
		c-10.8,4.6-21.2,10.2-31,16.7c-9.7,6.5-18.9,13.7-27.1,22c-11.4,11.4-20.8,24.2-27.5,39c-4.8,10.6-8,21.6-9,33.1
		c-0.4,5.2-0.7,10.5-0.4,15.8c0.5,9.9,2.5,19.6,5.8,29c3.4,9.6,7.8,18.7,13.2,27.3c4.6,7.3,10.3,13.8,16.7,19.7
		C59.5,772,69.1,779,79,785.6c3.1,2.1,4,4.4,3.1,7.8c-0.1,0.4-0.1,0.8-0.2,1.2c0,0.1-0.1,0.1-0.3,0.2c-0.9-0.5-1.9-1-2.8-1.6
		c-9.6-6.3-18.7-13.2-27.1-20.9c-6.9-6.4-13.2-13.4-18.9-21c-4.3-5.8-8.1-11.9-11.4-18.3c-4.9-9.3-8.5-19.1-10.7-29.4
		c-1.2-5.6-2.1-11.3-2.3-17c-0.1-2.1-0.4-4.3-0.3-6.4c0.2-13.1,2.5-25.8,7.1-38.1c5.8-15.4,14.6-29.1,25.6-41.3
		c13.5-14.9,29.3-26.8,46.8-36.6c20.5-11.5,42.2-19.9,64.9-25.7c5.3-1.4,10.7-2.7,16.2-4c0-0.7,0.1-1.4,0.1-2.1
		c0-9.6,0.1-19.2,0-28.8c-0.1-12.9-0.3-25.7-0.4-38.6c-0.1-11-0.1-21.9-0.1-32.9c-0.1-14.1-0.2-28.3-0.4-42.4c0-3.3,0-6.5,0-10.2
		c13.4,5.1,26.6,10.3,40,15.6c0,1.1,0,2.1,0,3.2c0,42.4,0,84.8,0,127.2c0,0.9,0,1.8,0.1,2.6c0,0.1,0.5,0.2,0.8,0.4
		c2.8,0.2,5.5-0.1,8.4-0.7c0-1.2,0-2.1,0-3.1c0-13.9-0.1-27.8-0.1-41.7c0-19.7,0-39.3,0-59c0-8.2,0-16.3,0-24.5c0-0.9,0.2-1.8,0.3-3
		c9.7,2.4,18.9,5.5,28.4,7.7c0.5-2.9,0.4-20.1-0.1-21.9c-0.6,0.1-1.2,0.2-1.8,0.4c-5.6,1.9-11.2,3.8-16.8,5.6
		c-3.3,1.1-6.7,2.1-10.1,3.1c0-9.8,0-19.6,0-29.6c0.7,0.2,1.2,0.3,1.7,0.5c10.5,4.4,21.1,8.8,31.6,13.1c1.4,0.6,1.7,1.3,1.7,2.7
		c0,8.3,0,16.6,0,24.9c0,40.4,0,80.9,0,121.3c0,0.9,0,1.9,0,2.9c0.6,0,1,0,1.4,0c3.3,0.2,6.5,0.5,9.8,0.7c8.7,0.5,17.4,1.4,26,2.7
		c1.5,0.2,3,0.3,4.7,0.5c0.2-45,0.4-89.7,0.6-134.7c-5.5,1.4-10.7,2.7-15.9,4c-5.3,1.3-10.4,3-16.1,3.9c0-2.1,0-3.9,0-5.7
		c0-1.8,0-3.7,0-5.5s-0.1-3.7,0-5.5c0.1-1.8-0.3-3.6,0.4-5.4c0.6,0.1,1.1,0.2,1.5,0.3c7.9,1.9,15.8,3.9,23.8,5.8
		c2.2,0.5,4.4,0.9,6.5,1.3c1,0.3,1.9,0.7,2.9,1c3.8,1,7.7,2,11.5,2.9c-0.1,0.7-0.2,1.4-0.2,2.1c-0.1,27.4-0.1,54.8-0.2,82.2
		c-0.1,29.4-0.2,58.8-0.2,88.2c0,27.7,0,55.5,0,83.2c0,0.9,0,1.8,0,2.6C308.1,657.5,308.1,663.1,308.1,668.7z M253.2,539.8
		c-0.3-0.1-0.7-0.1-1-0.1c0,0-0.1,0.2-0.1,0.4c0.4,0.1,0.8,0.2,1.2,0.2c0.7,0.2,1.4,0.4,2.1,0.4c2.5,0.2,5.1,0.2,7.6,0.5
		c8.1,0.8,16.2,1.7,24.3,2.5c2,0.2,3.9,0.5,5.8,0.8c0.5-1.9,0.4-2.2-1.4-2.4c-4.6-0.5-9.2-1.1-13.8-1.4c-7.2-0.5-14.5-0.8-21.7-1.2
		C255.1,539.5,254.2,539.8,253.2,539.8z"/>
	<path class="st1" d="M833.6,777c0,17,0,34,0,51.1c-171.6,0-343.1,0-514.8,0c0-17,0-33.9,0-51.1C490.4,777,662,777,833.6,777z
		 M355.8,798.9c0.5-0.4,0.8-0.6,1.1-0.9c3-2.7,2.7-6.3-0.8-8.4c-0.9-0.5-1.9-1-2.9-1c-5.1-0.2-10.2-0.2-15.3-0.3
		c-0.1,0-0.2,0.2-0.4,0.3c0,7.4,0,14.8,0,22.1c0.3,0.1,0.4,0.3,0.6,0.3c4.7,0,9.4,0.2,14.1,0c1.7-0.1,3.5-0.6,5-1.5
		c4.1-2.5,4.1-7.8-0.1-9.9C356.7,799.4,356.4,799.2,355.8,798.9z M685,811.9c-0.3,2.5,0.3,3.8,2.7,4.6c4,1.5,8.1,1.6,12.1-0.1
		c1.4-0.6,2.5-1.7,2.9-3.3c0.2-1.1,0.5-2.2,0.5-3.3c0.1-4.8,0-9.6,0-14.4c0-0.3-0.1-0.6-0.2-1c-1.6,0-3,0-4.5,0
		c-0.2,0.7-0.3,1.2-0.5,1.8c-3.7-3.3-9.1-2.4-11.6,0c-2.6,2.6-3.2,7.9-1.1,11.1c2.6,3.9,6.5,4.4,12.2,1.8c0.6,4.1-0.4,5.2-4.3,4.9
		c-0.9-0.1-1.7-0.1-2.3-1c-0.2-0.3-0.8-0.6-1.2-0.6C688.1,812.2,686.6,812.1,685,811.9z M464,811.9c0,2.8,1.3,4.2,3.3,4.9
		c3.5,1.2,7.1,1.2,10.6,0.2c2.7-0.7,4.3-2.7,4.3-5.4c0.1-5.5,0-11,0-16.5c0-0.1-0.1-0.3-0.3-0.5c-1.4,0-2.9,0-4.4,0
		c-0.2,0.5-0.4,1-0.5,1.5c-4.7-2.7-8.8-2.4-11.7,0.7c-2.4,2.6-2.8,7.6-0.8,10.7c0.9,1.5,2.2,2.5,3.9,3.1c3.1,1.1,5.9,0.3,8.6-1.8
		c0,1.3,0,2.2,0,3.1c-0.1,1.1-0.7,1.9-1.7,2c-1.8,0.2-3.8,1.1-5.3-1c-0.1-0.2-0.6-0.3-0.8-0.3C467.6,812.3,465.9,812.1,464,811.9z
		 M515,795.7c1.8-0.4,3.4-0.7,5.2-1.1c-0.7-2.8-2.5-4.4-4.7-5.5c-2.1-1-4.3-1.2-6.5-1.2c-7,0.1-11.5,3.9-12.2,10.9
		c-0.4,4.3,1.1,8.1,5,10.5c4.2,2.6,8.7,2.8,13.3,0.8c2.7-1.1,4.4-3.2,5.2-6.3c-1.8-0.5-3.5-0.9-5.1-1.3c-0.3,0.6-0.5,1.1-0.7,1.5
		c-1.4,2.6-3.7,3.7-6.9,3.1c-2.7-0.5-4.4-2.4-4.7-5.3c-0.1-1.5-0.2-3,0-4.5c0.3-3.1,2.6-5.2,5.8-5.4
		C511.5,791.8,513.7,792.9,515,795.7z M807.5,794.6c-0.8-2.9-2.5-4.5-4.9-5.6c-2.3-1.1-4.6-1.1-7-1c-4.4,0.2-8,1.9-10,5.8
		c-2.1,4.1-2,8.3,0.3,12.4c3.7,6.4,15.2,6.8,19.6,1.7c1-1.1,1.8-2.3,2-4c-1.8-0.5-3.5-0.9-5.2-1.4c-0.2,0.6-0.3,1-0.5,1.4
		c-1.3,2.7-3.3,3.7-6.5,3.3c-2.7-0.3-4.5-1.8-5-4.7c-0.3-1.7-0.4-3.5-0.2-5.2c0.4-3.3,2.7-5.2,6.1-5.3c2.8-0.1,4.9,1,6.1,3.7
		C804,795.3,805.6,795,807.5,794.6z M420.9,795.7c-6.1-2.3-9.6-1.8-12.3,1.7c-2,2.6-2.2,7.7,0.2,10.8c1,1.4,2.4,2.3,4.1,2.8
		c3,1,5.6-0.1,8.1-1.5c0.8,1.8,2,2,5.1,1.2c0-7.4,0-14.8,0-22.3c-1.7,0-3.4,0-5.2,0C420.9,790.9,420.9,793.2,420.9,795.7z
		 M608.5,800c-0.7,0.2-1.3,0.5-1.9,0.6c-2.3,0.5-4.6,0.8-6.8,1.5c-2.4,0.7-3.5,2.3-3.4,4.6c0.1,1.9,1.4,3.7,3.6,4.3
		c1.3,0.3,2.8,0.5,4.2,0.3c1.5-0.2,3-0.9,4.6-1.4c1.2,1.4,2.4,1.7,5.3,1c-0.1-2.2-0.3-4.3-0.4-6.4c-0.1-1.6,0.1-3.2,0-4.8
		c-0.1-2.8-1.1-4.2-3.7-4.9c-3-0.8-6.2-0.8-9.2,0.1c-1.9,0.6-3.3,1.9-3.7,4.1c1.6,0.2,3,0.5,4.4,0.7
		C603.9,796.8,607.2,796.9,608.5,800z M547.9,794.5c-0.5,2.9-0.4,14.7,0.1,16.4c1.6,0,3.1,0,4.9,0c0-1.2,0-2.4,0-3.5
		c0.1-2.1,0.1-4.3,0.3-6.4c0.2-2.2,1.9-3.5,4.1-3.4c1.7,0.1,2.6,0.9,2.8,2.7c0.1,1.7,0.1,3.5,0.1,5.3c0,1.7,0,3.5,0,5.3
		c2,0,3.7,0,5.3,0c0-4.1,0-8,0-11.9c0-2.7-2.4-4.5-4.9-4.7c-2.5-0.2-5,0-7,1.6c-0.2,0.1-0.4,0.1-0.6,0.2c-0.2-0.6-0.3-1.1-0.5-1.6
		C550.9,794.5,549.5,794.5,547.9,794.5z M441.7,794.5c0,5.6,0,10.9,0,16.4c1.7,0,3.3,0,5.1,0c0-2.6,0-5,0-7.5c0-1.2,0.2-2.4,0.5-3.5
		c0.4-1.5,2.3-2.5,4.1-2.3c1.7,0.2,2.5,1.2,2.7,3.1c0.1,1,0,1.9,0,2.9c0,2.4,0,4.7,0,7.2c2,0,3.7,0,5.7,0c-0.1-3.9-0.2-7.7-0.4-11.4
		c-0.2-3.3-2.1-5-5.4-5.2c-2.6-0.2-4.9,0.4-7,2.1c-0.2-0.7-0.3-1.2-0.5-1.7C444.8,794.5,443.4,794.5,441.7,794.5z M534,793.9
		c-2.3,0.1-4.4,0.6-6.3,1.8c-2.8,1.8-4.2,4.3-4,7.6c0.2,3.3,1.8,5.7,4.9,7c3.1,1.3,6.3,1.6,9.5,0.3c3.1-1.3,5.4-3.4,5.7-7
		c0.3-3.9-1.4-6.6-4.8-8.2C537.4,794.6,535.6,794.3,534,793.9z M364.6,794.5c0,4.2-0.1,8.1,0,12.1c0.1,2.3,1.7,3.8,4.1,4.4
		c2.8,0.7,5.4,0.2,7.7-1.5c0.2-0.1,0.4-0.1,0.6-0.2c0.2,0.6,0.3,1.1,0.5,1.5c1.7,0,3.1,0,4.7,0c0-5.5,0-10.8,0-16.2
		c-1.7,0-3.4,0-5.1,0c0,1.4,0,2.6,0,3.8c-0.1,2.2-0.1,4.5-0.3,6.7c-0.2,1.9-1.9,3-4.1,2.8c-1.9-0.1-2.7-1-2.8-3.1
		c-0.1-1,0-1.9,0-2.9c0-2.4,0-4.8,0-7.3C368,794.5,366.5,794.5,364.6,794.5z M662.4,794.5c-0.4,3.8-0.3,14.8,0.2,16.3
		c1.6,0,3.3,0,5,0c0-2.9,0-5.6,0-8.3c0-0.8,0.1-1.6,0.3-2.4c0.5-1.8,2.3-2.8,4.3-2.5c1.7,0.3,2.4,1.1,2.4,3.2c0,2.7,0,5.4,0,8.2
		c0,0.6,0.1,1.2,0.2,1.8c1.8,0,3.4,0,5.2,0c0-3.9,0.1-7.7,0-11.4c-0.1-2.9-2.1-4.9-5-5.1c-2.5-0.2-5,0-7,1.7
		c-0.2,0.1-0.4,0.1-0.7,0.2c-0.1-0.6-0.3-1.1-0.4-1.6C665.4,794.5,664,794.5,662.4,794.5z M718.7,788.5c0,7.6,0,14.9,0,22.5
		c6.4-0.1,12.6,0.1,18.9-0.1c0-1.5,0-2.6,0-4c-4.5-0.1-8.8,0-13.3-0.1c0-6.3,0-12.2,0-18.3C722.3,788.5,720.5,788.5,718.7,788.5z
		 M635.6,799.4c-1.3-3.2-3.3-4.8-6.2-5.1c-1.6-0.2-3.2-0.2-4.8,0c-3.2,0.4-5.7,2.1-6.8,5.3c-1.1,3.3-0.7,6.4,1.8,9.1
		c3,3.3,10,3.3,13.1,1.1c1.4-1,2.6-2.3,3-4.5c-1.6-0.3-3.2-0.5-4.9-0.8c-0.2,0.4-0.4,0.8-0.6,1.1c-0.8,1.6-2.1,2.1-3.7,1.9
		c-2.2-0.2-3.2-1.4-3.6-4.1c-0.4-2.9,0.5-4.9,2.4-5.7c0.3-0.1,0.6-0.1,0.9-0.2c2-0.3,3.4,0.4,4.2,2.5
		C632.2,800,633.7,799.7,635.6,799.4z M752.1,788.5c0,7.6,0,14.9,0,22.2c2.9,0.5,17.2,0.4,18.9-0.1c0-1.2,0-2.3,0-3.8
		c-4.6,0-9,0-13.6,0c0-2.2,0-4.2,0-6.2c0-2.1,0-4.1,0-6.2c0-2-0.1-3.9-0.1-5.9C755.4,788.5,753.8,788.5,752.1,788.5z M579.7,807.2
		c-0.8,0.2-1.4,0.3-1.9,0.4c-0.9,0.1-1.4-0.3-1.5-1.2c0-2.8,0-5.5,0-8.2c1.3-0.1,2.3-0.2,3.3-0.3c0-1.3,0-2.3,0-3.4
		c-1.2-0.1-2.2-0.2-3.4-0.3c0-1.8,0-3.5,0-5.4c-1.6,0.7-2.9,1.3-4.2,1.8c-1.1,0.4-1.4,1.1-1.3,2.2c0,0.5-0.1,0.9-0.1,1.4
		c-0.7,0.1-1.2,0.2-1.8,0.3c0,1.1,0,2.2,0,3.2c0.7,0.2,1.3,0.3,1.8,0.5c0.2,3.3,0.3,6.4,0.5,9.5c0.1,1.6,0.9,2.7,2.5,3.2
		c2.2,0.7,4.4,0.6,6.6-0.4C579.9,809.4,579.8,808.4,579.7,807.2z M639.6,798.2c0,0.9,0,1.5,0,2.1c0,2.1,0,4.2,0,6.2
		c0,3.2,1,4.2,4.2,4.7c1.7,0.3,3.3-0.1,5-0.7c-0.2-1.1-0.4-2.2-0.5-3.3c-0.7,0.1-1.2,0.2-1.6,0.3c-0.9,0.1-1.6-0.2-1.7-1.2
		c-0.2-2.8-0.2-5.5-0.1-8.2c1.3-0.1,2.3-0.2,3.3-0.2c0-1.3,0-2.3,0-3.4c-1.1-0.1-2.1-0.1-3.4-0.2c0-1.8,0-3.5,0-5.6
		c-2,1-3.6,1.8-5.1,2.5c-0.1,1.1-0.2,2-0.3,2.9c-0.8,0.2-1.5,0.3-2.1,0.5c0,1.2,0,2.2,0,3.2C638.2,798,638.8,798.1,639.6,798.2z
		 M398,788.3c0,7.7,0,15.1,0,22.6c1.7,0,3.3,0,5,0c0-7.6,0-15,0-22.6C401.3,788.3,399.7,788.3,398,788.3z M583.1,794.5
		c0,5.5,0,10.9,0,16.3c1.8,0,3.4,0,5.1,0c0-1.1,0-1.9,0-2.8c0-2,0-4,0.1-6c0.2-2.8,1.4-4.7,5.2-3.4c0.1,0,0.3-0.1,0.5-0.1
		c0.3-0.5,0.6-1.1,0.8-1.6c0.2-0.6,0.4-1.2,0.6-1.7c-2.8-1.5-4.5-1.3-7.5,0.9c-0.2-0.5-0.3-1-0.5-1.5
		C586.1,794.5,584.7,794.5,583.1,794.5z M392.6,810.8c0.4-2.7,0.4-14.5-0.1-16.3c-1.6,0-3.3,0-5.2,0c0,5.5,0,10.9,0,16.3
		C389.3,810.8,391,810.8,392.6,810.8z M436.4,794.5c-1.9,0-3.6,0-5.2,0c-0.5,2.9-0.4,14.6,0.1,16.3c1.6,0,3.3,0,5,0
		C436.4,805.3,436.4,800,436.4,794.5z M656.9,810.9c0-5.5,0-10.9,0-16.3c-1.7,0-3.4,0-5,0c0,5.5,0,10.8,0,16.3
		C653.7,810.9,655.2,810.9,656.9,810.9z M779.8,806.5c-1.8,0-3.4,0-5.2,0c0,1.5,0,2.9,0,4.4c1.8,0,3.4,0,5.2,0
		C779.8,809.4,779.8,808,779.8,806.5z M812.3,810.8c1.9,0,3.4,0,4.9,0c0-1.6,0-2.9,0-4.3c-1.8,0-3.3,0-4.9,0
		C812.3,808.1,812.3,809.4,812.3,810.8z M436.4,788.3c-1.8,0-3.5,0-5.3,0c0,1.4,0,2.7,0,4c1.8,0,3.6,0,5.3,0
		C436.4,790.9,436.4,789.7,436.4,788.3z M392.8,788.3c-1.9,0-3.6,0-5.3,0c0,1.4,0,2.6,0,4c1.8,0,3.5,0,5.3,0
		C392.8,791,392.8,789.7,392.8,788.3z M741.5,806.4c0,1.6,0,3,0,4.4c1.7,0,3.4,0,4.9,0c0-1.6,0-2.9,0-4.4
		C744.8,806.4,743.3,806.4,741.5,806.4z M656.9,788.3c-1.7,0-3.3,0-5,0c0,1.4,0,2.7,0,4.1c1.7,0,3.3,0,5,0
		C656.9,791,656.9,789.8,656.9,788.3z"/>
	<path class="st2" d="M308.1,668.7c0-5.6,0-11.2,0.1-16.8c0-0.9,0-1.8,0-2.6c0-27.7,0-55.5,0-83.2c0-29.4,0.2-58.8,0.2-88.2
		c0.1-27.4,0.1-54.8,0.2-82.2c0-0.7,0.1-1.4,0.2-2.1c4.4-1.1,8.8-2.3,13.2-3.5c9.1-2.5,18.2-5,27.2-7.5c0.5-0.1,1.1-0.1,1.9-0.3
		c0,1,0.1,1.9,0.1,2.8c0,23.3,0,46.7,0,70c0,29.5,0,59,0,88.5c0,0.9,0.1,1.9,0.2,2.8c0,3.2,0,6.4-0.1,9.6c0,1.5,0,3,0.1,4.5
		c0,1.5-0.1,3.1-0.1,4.6c-0.1,0.9-0.2,1.9-0.2,2.8c0,42.8,0,85.5,0,128.3c0,1.2,0,2.4,0,3.8c-0.9-0.5-0.9-1.2-1.1-1.8
		c-1.3-3.7-2.5-7.4-3.9-11c-2.2-5.3-5.1-10.1-9.5-14c-4.6-4-9.9-5.9-16-6.1C316.6,667.1,312.3,667.6,308.1,668.7z"/>
	<path class="st0" d="M208.1,631.3c0,16.3,0,32.3,0,48.5c-4.8,0.4-9.6,0.1-14.6,0.2c-0.2-0.9-0.5-1.7-0.6-2.5
		c-0.7-4.3-1.7-8.5-3.7-12.3c-5.3-10.3-13.7-15.7-25.2-16.3c-3.8-0.2-7.5-0.1-11,1.6c-6.4,3.1-9,8.7-8,15.4c0.4,3.1,2.7,5.2,5.1,7
		c3.5,2.5,7.4,4.1,11.5,5.3c6.5,1.9,13.1,3.7,19.5,5.8c6.2,2,12,4.8,17.3,8.7c7.2,5.3,11.9,12.4,13.9,21.1
		c2.2,9.4,2.1,18.9-0.9,28.2c-4.5,13.9-14.2,22.6-28.2,26c-14,3.4-27.6,1.8-40.4-4.9c-2.2-1.1-4.2-2.7-6.2-4c-0.5-0.3-0.9-0.6-1.5-1
		c-1.2,2.7-2.4,5.2-3.5,7.8c-0.5,1.2-1.2,1.7-2.5,1.7c-3.7-0.1-7.3,0-11.3,0c-0.3-5.9-0.1-11.6-0.2-17.3c0-5.8,0-11.7,0-17.5
		c0-5.7,0-11.5,0-17.2c1.8-0.6,10.4-0.7,14.6-0.3c0.2,1.2,0.5,2.4,0.7,3.6c1.4,7.5,4.1,14.4,9.2,20.3c5.9,6.9,13.3,10.5,22.4,10.6
		c3.8,0.1,7.5-0.3,11-1.9c8.6-3.7,10.1-12.7,7.9-18.3c-1-2.4-2.5-4.2-4.5-5.8c-2.9-2.4-6.2-4-9.7-5.1c-6-2-12.1-3.6-18.1-5.5
		c-6.7-2.2-13.3-4.5-19.2-8.5c-8.7-5.9-13.6-14.1-15.3-24.2c-1.4-8.1-1-16.3,1.4-24.2c3.8-12.3,11.8-20.5,24.1-24.2
		c11.6-3.5,23.3-3.5,34.9,0c4.9,1.5,9.2,4.1,13.1,7.2c0.3,0.2,0.6,0.5,1,0.7c0.1,0,0.1,0,0.4,0c1-2.8,2-5.7,3.1-8.7
		C199.1,631.3,203.5,631.3,208.1,631.3z"/>
	<path class="st0" d="M257.7,688.3c0-5.6,0-10.8,0-16.3c12.1,0,24.1,0,36.3,0c0.4,3.8,0.1,7.5,0.2,11.8c0.9-1.2,1.5-2,2.1-2.9
		c2.7-3.9,6-7.3,10.2-9.6c4-2.2,8.3-3.1,12.9-2.6c2.1,0.2,4.2,0.3,6.1,0.8c8.7,2.2,14.1,8.1,17.8,15.9c2.9,6.1,4.2,12.5,5,19.1
		c0.9,7.6,0.9,15.2,0.4,22.7c-0.6,9-2.5,17.7-6.8,25.7c-2.9,5.3-6.5,10.1-12.1,12.9c-8.3,4.2-16.5,3.8-24.4-0.9
		c-3.6-2.1-6.4-5-8.9-8.3c-0.2-0.2-0.4-0.5-1-1.1c0,1.1,0,1.7,0,2.3c0,15.6,0,31.2,0,46.8c0,6.5,1.9,7.2,7.4,7.5
		c1.7,0.1,3.3,0,5.1,0c0,5.4,0,10.5,0,15.5c-1.7,0.5-47.5,0.6-50.4,0.1c0-5.1,0-10.1,0-15.5c0.8,0,1.5-0.1,2.3-0.1
		c1.5-0.1,3-0.2,4.5-0.4c2.1-0.3,3.3-1.5,3.6-3.6c0.2-1.5,0.5-3,0.5-4.5c0-35.8,0-71.7,0-107.5c0-1-0.1-2.1-0.3-3.1
		c-0.6-3.7-2-4.9-5.8-5C260.9,688.3,259.4,688.3,257.7,688.3z M295.6,718.7c-0.2,6.4,0.2,12.7,1.4,19c0.6,2.8,1.4,5.6,3,8.1
		c3.9,6.3,12.2,5.7,15.4,0.1c0.7-1.2,1.3-2.4,1.8-3.6c1.9-5.1,2.4-10.4,2.7-15.7c0.4-8.2,0.5-16.4-0.9-24.6
		c-0.5-3.2-1.5-6.3-2.7-9.4c-0.9-2.3-2.5-4.3-4.8-5.4c-4-1.9-8.6-0.3-11.1,3.8c-1.6,2.6-2.5,5.5-3.2,8.5
		C295.7,705.8,295.3,712.2,295.6,718.7z"/>
	<path class="st0" d="M832.7,749.3c0,5.5,0,10.7,0,16.1c-15.7,0-31.2,0-46.8,0c-0.5-1.8-0.6-13.4-0.1-16.3c0.9,0,1.8,0,2.7,0
		c4.2-0.2,5.7-1.6,6.1-5.8c0.1-1.1,0.1-2.2,0.1-3.4c0-12,0-24,0-36c0-3.2-0.3-6.4-1.4-9.4c-1.4-4.1-4.2-6.5-7.8-6.9
		c-5-0.5-9.1,1-11.3,5.7c-1.2,2.5-1.9,5.3-2.3,8c-0.5,2.9-0.7,5.9-0.7,8.8c-0.1,10,0,20,0,30c0,1.7,0.2,3.5,0.5,5.2
		c0.3,1.8,1.5,3,3.3,3.3c1.6,0.3,3.3,0.4,5.2,0.6c0.3,5.3,0,10.6,0.2,16c-15.8,0-31.4,0-46.9,0c-0.5-1.6-0.6-13-0.1-16.2
		c1.2,0,2.4-0.1,3.7-0.1c5.4-0.1,6.9-1.3,7-7c0.2-11.4,0.1-22.9,0.1-34.3c0-16,0-32,0-48c0-2.2-0.2-4.5-0.5-6.7
		c-0.3-2.3-1.6-3.6-3.9-3.8c-2.1-0.2-4.3-0.4-6.6-0.6c0-5.3,0-10.6,0-16c12.2,0,24.3,0,36.7,0c0.3,5.8,0.1,11.5,0.1,17.2
		c0,5.7,0,11.4,0,17c0,5.7,0,11.5,0,17.5c1.9-2.1,3.6-4.1,5.4-6c4.7-4.8,10.2-8,16.9-8.8c6.1-0.7,12.2-0.2,17.7,2.7
		c3.9,2.1,6.5,5.4,8.1,9.4c1.8,4.5,2.8,9.2,2.9,14c0.2,14.2,0.2,28.5,0.4,42.7c0,2.1,0.2,4.2,0.5,6.2c0.4,2.9,1.5,3.8,4.4,4.2
		c1.4,0.2,2.9,0.1,4.3,0.2C831.3,749.2,831.9,749.3,832.7,749.3z"/>
	<path class="st2" d="M294.5,389.6c-2.2-0.4-4.4-0.8-6.5-1.3c-7.9-1.9-15.8-3.9-23.8-5.8c-0.5-0.1-0.9-0.2-1.5-0.3
		c-0.7,1.8-0.3,3.7-0.4,5.4c-0.1,1.8,0,3.7,0,5.5s0,3.7,0,5.5c0,1.8,0,3.6,0,5.7c5.7-1,10.9-2.7,16.1-3.9c5.2-1.2,10.4-2.6,15.9-4
		c-0.2,45-0.4,89.7-0.6,134.7c-1.7-0.2-3.2-0.3-4.7-0.5c-8.6-1.3-17.3-2.2-26-2.7c-3.3-0.2-6.5-0.5-9.8-0.7c0-1.6,0-3.2,0-4.8
		c-0.1-24.1-0.2-48.3-0.3-72.4c-0.1-17.8-0.1-35.7-0.2-53.5c0-4.5-0.2-8.9-0.3-13.4c0-0.8,0-1.6,0-2.6c13.9-5,27.8-9.8,42.1-14.8
		C294.5,373.9,294.5,381.8,294.5,389.6z"/>
	<path class="st0" d="M500.7,685.1c4.3,1.1,7,3.6,8.1,7.6c1.6,6.1-0.5,12.2-5.9,15.1c-8,4.4-18.2-0.6-19.8-9.6
		c-1.9-10.7,3.1-20.1,12.5-24.8c5.9-3,12.2-4.1,18.7-4.7c5.1-0.4,10.1-0.2,15,0.7c3.2,0.6,6.4,1.3,9.4,2.6
		c8.9,3.7,13.8,10.4,14.2,20.1c0.3,6.7,0.3,13.4,0.3,20.1c0.1,9,0,17.9,0,26.9c0,1.8,0.3,3.6,0.6,5.5c0.1,0.6,0.4,1.2,0.7,1.7
		c1.5,2.1,4.5,1.9,5.4-0.5c0.6-1.8,0.8-3.7,0.9-5.6c0.1-3,0-6.1,0-9c1.9-0.6,7.5-0.7,10-0.1c0,0.7,0.1,1.5,0.1,2.3
		c-0.3,5.5-0.3,11-0.9,16.5c-0.3,3-1.3,5.9-2.5,8.7c-2.7,6.2-7.8,9.4-14.3,10.2c-3.2,0.4-6.6,0.2-9.8-0.3c-5.4-0.8-9.3-3.9-11.9-8.7
		c-0.8-1.4-1.4-2.9-2.1-4.5c-0.4,0.5-0.8,0.9-1.2,1.4c-4.4,5.4-9.6,9.8-16.6,11.5c-6,1.4-12.1,1.5-17.9-0.8
		c-5.6-2.2-9.6-6.3-11.9-11.9c-3.1-7.5-3.3-15.2-1.3-23c1.5-5.7,5.2-9.8,10.5-12.4c4.6-2.4,9.6-4,14.6-5.5c4.6-1.4,9.1-2.9,13.6-4.5
		c6-2.2,8.5-6.8,8.6-13c0-2.7-0.3-5.3-1.6-7.7c-2-4-5.4-6.2-9.7-7.2c-3.8-0.9-7.6-0.7-11.3,0.4C503.4,683,502.3,683.7,500.7,685.1z
		 M527.3,719.8c-3.2,1.9-6,3.5-8.7,5.3c-2.4,1.6-4.8,3.2-6.9,5.1c-2.8,2.5-4.8,5.5-4.5,9.6c0.3,4.1,2.7,7.6,6.4,8.6
		c4.1,1,8.4-0.2,10.8-3.7c1.8-2.7,2.6-5.7,2.8-8.8C527.4,730.7,527.3,725.5,527.3,719.8z"/>
	<path class="st2" d="M293,627.7c0,1.3,0,2.6,0.1,3.9c0,12.7,0,25.4,0,38.4c-1,0.1-1.8,0.2-2.7,0.2c-10.7,0.1-21.4,0.2-32.1,0.2
		c-0.6,0-1.2,0.1-2,0.1c0,6.3,0,12.4,0,18.6c1.5,0,2.8,0,4.1,0c4.4,0.2,7,3.7,6.9,7.1c-0.1,14.7,0,29.4,0,44.1
		c0,0.5-0.1,0.9-0.1,1.5c-4.2,2-8.3,4.3-12.9,6c-0.1-0.8-0.2-1.4-0.2-1.9c0-1.4,0-2.9,0-4.3c-0.1-24.1-0.2-48.1-0.3-72.2
		c-0.1-18.1-0.1-36.1-0.2-54.2c-0.1-18.5-0.2-37.1-0.3-55.6c0-4.8-0.1-9.6-0.2-14.4c5.4,0.2,10.8,0.3,16.3,0.7
		c5.5,0.4,11,1,16.4,1.6c2.4,0.3,4.9,0.7,7.4,1.1c0.1,0.9,0.2,1.6,0.2,2.3c0,9.5,0,19,0,28.5c-0.1,15.1-0.2,30.2-0.3,45.3
		C293.2,625.8,293.1,626.8,293,627.7C293,627.8,292.9,627.7,293,627.7L293,627.7z"/>
	<path class="st0" d="M672.5,676.1c0.5-1.5,0.9-2.7,1.2-3.9c0.2-0.8,0.6-1.3,1.5-1.3c3.4,0,6.7,0,10,0c0.6,1.8,0.9,25.4,0.3,29.9
		c-0.5,0.1-1,0.3-1.5,0.3c-2.7,0-5.4-0.1-8.2,0c-1.3,0-2-0.5-2.6-1.6c-2.5-4.5-5.7-8.3-10.1-11c-4.9-3-10.2-4.4-16-3.2
		c-2.7,0.6-4.6,2.1-5.5,4.8c-1,2.9-0.7,5.6,1.8,7.6c1.9,1.5,4,3.1,6.2,4c5.3,2.1,10.7,3.8,16,5.8c3,1.1,6,2.2,8.8,3.8
		c7.1,4,12.3,9.7,14.3,17.8c2.9,11.7-0.5,25.6-12,33.4c-5,3.4-10.5,5.3-16.5,6c-5.8,0.7-11.5,0.4-17.1-1.2
		c-4.4-1.3-8.5-3.3-12.4-5.6c-1-0.6-1.9-1.1-3.1-1.8c-0.9,2.2-1.7,4.3-2.5,6.5c-3.7,0-7.5,0-11.2,0c-0.5-1.8-0.6-31.7-0.1-34.8
		c4.2,0,8.4,0,12.5,0c1.2,2.7,2.3,5.4,3.6,8c4.7,8.9,14.7,13.7,24.2,11.6c3.8-0.9,6.4-3,6.8-7c0.3-2.6-0.3-4.9-2.7-6.5
		c-2.9-1.9-6.2-2.9-9.5-4c-7.1-2.4-14.3-4.7-21-8.1c-6.3-3.2-11.1-7.8-13.4-14.6c-1.7-5.2-2.1-10.4-1.4-15.8
		c0.7-5.3,2.4-10.1,5.7-14.3c4.3-5.6,9.9-9.2,16.7-11c12.3-3.1,23.9-1.4,34.8,5C671,675.2,671.6,675.6,672.5,676.1z"/>
	<path class="st0" d="M437.5,749.2c0,5.6,0,10.9,0,16.3c-16.7,0-33.3,0-50.1,0c0-5.3,0-10.5,0-16.1c0.9-0.1,1.8-0.1,2.7-0.2
		c1.7-0.1,3.5-0.2,5.2-0.5c1.6-0.2,2.6-1.2,2.9-2.8c0.2-1.2,0.5-2.4,0.5-3.5c0-28.6,0-57.1,0-85.7c0-1.3-0.3-2.7-0.4-4
		c-0.2-1.9-1.4-2.8-3.1-3.2c-1.2-0.3-2.4-0.4-3.5-0.4c-1.3-0.1-2.7,0-4.4,0c-0.1-5.5,0-10.8-0.1-16.2c13,0,25.8,0,38.9,0
		c0,1.1,0,2.1,0,3.2c0,34.4,0,68.8,0,103.2c0,2.1,0.2,4.3,0.5,6.4c0.2,1.9,1.3,3,3.2,3.3c1.2,0.2,2.4,0.3,3.6,0.4
		C434.6,749.2,435.9,749.2,437.5,749.2z"/>
	<path class="st2" d="M216.8,391.4c3.4-1,6.7-2,10.1-3.1c5.6-1.8,11.2-3.7,16.8-5.6c0.6-0.2,1.2-0.3,1.8-0.4
		c0.6,1.8,0.7,19,0.1,21.9c-9.4-2.2-18.7-5.3-28.4-7.7c-0.1,1.2-0.3,2.1-0.3,3c0,8.2,0,16.3,0,24.5c0,19.7,0,39.3,0,59
		c0,13.9,0.1,27.8,0.1,41.7c0,0.9,0,1.9,0,3.1c-2.9,0.6-5.6,0.9-8.4,0.7c0-44.6,0-89.1,0-133.9C211.4,393.5,214.1,392.5,216.8,391.4
		z"/>
	<path class="st2" d="M208.9,547.6c2.6-0.5,5.3-1.1,8-0.8c0,55.4,0,110.8,0,166.2c-0.1,0-0.3,0.1-0.4,0.1c-0.2-0.5-0.5-1-0.7-1.6
		c-1.1-3.6-2.7-7-5.6-9.6c-1-0.9-1-1.9-1-3c0-14.2,0-28.3,0-42.5c0-35.8-0.1-71.6-0.2-107.5C209,548.5,209,548.1,208.9,547.6z"/>
	<path class="st0" d="M351.5,556.1c0-3.2,0-6.4,0.1-9.6c12.8,4.9,25.1,10.8,36.8,17.9c10.2,6.2,19.8,13.2,28.7,21.2
		c12.2,11,22.7,23.4,31.1,37.5c6.7,11.2,12,22.9,15.6,35.4c1.2,4.3,2.3,8.6,3.4,13c0.7,3.1,1.3,6.2,1.9,9.3c0.1,0.7,0.2,1.4-0.1,2.2
		c-0.9-3-1.9-6-2.8-9.1c-2.2-7.5-5.2-14.8-8.3-21.9c-4.7-10.5-10.1-20.5-16.9-29.7c-4-5.5-8.3-10.9-12.8-16.1
		c-9.9-11.5-21.6-21.1-34.3-29.3c-12.6-8.2-26.1-14.7-40.3-20C352.9,556.5,352.2,556.3,351.5,556.1z"/>
	<path class="st0" d="M351.5,565.2c0-1.5,0.1-3.1,0.1-4.6c14.5,5.9,28.3,13,41.2,21.9c6.8,4.7,13.3,9.9,19.4,15.6
		c7.2,6.6,13.6,13.9,19.4,21.8c9.1,12.5,15.9,26.2,20.5,41c1.8,6,3.5,12.1,4.4,18.4c0,0.3,0,0.6-0.2,1c-0.2-0.4-0.4-0.9-0.6-1.3
		c-2.2-6.2-4.2-12.4-6.6-18.5c-3.4-8.6-7.8-16.8-12.7-24.7c-7.7-12.4-16.9-23.6-27.5-33.7c-10.5-10-22.2-18.5-34.8-25.7
		C366.8,572.2,359.2,568.5,351.5,565.2z"/>
	<path class="st0" d="M169.4,678.8c0-9.4,0-18.6,0-28.3c1.1,0.3,2,0.5,2.8,0.8c4.7,2.1,8.2,5.4,11.2,9.5c4.3,5.8,7.6,12,8.7,19.3
		c0,0.3,0.2,0.6,0.4,1.2c4.9,0.5,9.9,0,14.9,0.3c0.6,1.9,0.6,15.3,0,17.8c-0.3-0.2-0.5-0.4-0.7-0.6c-3.1-4.9-7.4-8.5-12.4-11.4
		C186.7,683,178.3,680.6,169.4,678.8z"/>
	<path class="st2" d="M253.2,539.8c0.9-0.1,1.9-0.3,2.8-0.3c7.2,0.4,14.5,0.7,21.7,1.2c4.6,0.3,9.2,0.9,13.8,1.4
		c1.8,0.2,1.9,0.5,1.4,2.4c-1.9-0.3-3.9-0.6-5.8-0.8c-8.1-0.9-16.2-1.7-24.3-2.5c-2.5-0.3-5.1-0.3-7.6-0.5c-0.7-0.1-1.4-0.3-2.1-0.4
		C253.2,540.2,253.2,540,253.2,539.8z"/>
	<path class="st1" d="M343.2,806.8c0-1.9,0-3.7,0-5.6c3-0.2,5.9-0.3,8.8,0.3c1.4,0.3,2.4,1.4,2.4,2.6c0,1.3-1,2.6-2.6,2.7
		C349.1,806.9,346.2,806.8,343.2,806.8z"/>
	<path class="st1" d="M343.3,792.3c2.7,0,5.1-0.1,7.6,0c1.5,0.1,2.6,1.1,2.6,2.3c0,1.1-1.1,2.4-2.5,2.5c-2.5,0.1-5.1,0-7.7,0
		C343.3,795.6,343.3,794.1,343.3,792.3z"/>
	<path class="st1" d="M697.9,802.2c0,3-1.4,4.8-4,5c-2.5,0.2-4.2-1.2-4.4-3.6c0-0.6,0-1.1,0-1.7c0.1-2.7,1.4-4.2,3.8-4.4
		c2.3-0.2,4,1.2,4.5,3.7C697.8,801.6,697.9,802,697.9,802.2z"/>
	<path class="st1" d="M477.1,802.6c0.3,2.5-1.5,4.5-4,4.7c-2,0.1-3.6-1-4.1-2.9c-0.2-0.9-0.3-1.9-0.2-2.8c0.3-2.6,1.9-4,4.2-4
		c2.6,0.1,4,1.6,4.1,4.3C477.1,802.1,477.1,802.4,477.1,802.6z"/>
	<path class="st1" d="M421,802.8c-0.1,0.8-0.2,1.7-0.5,2.5c-0.5,1.6-1.9,2.4-3.7,2.4c-1.7,0-3.1-0.6-3.8-2.3
		c-0.6-1.7-0.7-3.4-0.1-5.2c0.5-1.6,2.2-2.7,3.9-2.6c1.8,0,3.3,1.1,3.8,2.7C420.9,801,420.9,801.8,421,802.8z"/>
	<path class="st1" d="M608.3,803.2c0.1,3.5-1.9,5.4-4.5,4.8c-1.2-0.3-2-1-2-2c0-1.2,0.8-1.6,1.8-1.9
		C605,803.9,606.6,803.6,608.3,803.2z"/>
	<path class="st1" d="M529.2,802.5c0-3,1.9-4.9,4.7-4.8c2.7,0.1,4.5,2.1,4.4,5.1c-0.1,3-2,4.9-4.8,4.8
		C530.7,807.5,529.2,805.7,529.2,802.5z"/>
</g>
</svg>
